<?xml version="1.0" standalone="no"?>
<!DOCTYPE svg PUBLIC "-//W3C//DTD SVG 20010904//EN"
 "http://www.w3.org/TR/2001/REC-SVG-20010904/DTD/svg10.dtd">
<svg version="1.0" xmlns="http://www.w3.org/2000/svg"
 width="2907.000000pt" height="2721.000000pt" viewBox="0 0 2907.000000 2721.000000"
 preserveAspectRatio="xMidYMid meet">
<metadata>
Created by potrace 1.10, written by Peter Selinger 2001-2011
</metadata>
<g transform="translate(0.000000,2721.000000) scale(0.100000,-0.100000)"
fill="#000000" stroke="none">
<path d="M6614 27140 c-22 -11 -62 -40 -87 -65 -25 -25 -50 -45 -54 -45 -5 0
-19 -10 -33 -22 -47 -42 -107 -93 -140 -118 -19 -14 -65 -51 -104 -83 -39 -32
-87 -71 -106 -87 -40 -32 -99 -80 -117 -95 -7 -5 -18 -15 -25 -20 -7 -6 -42
-34 -78 -63 -36 -29 -70 -56 -75 -60 -39 -28 -111 -88 -113 -94 -2 -5 -9 -8
-16 -8 -6 0 -19 -8 -28 -17 -23 -26 -66 -64 -118 -103 -25 -19 -52 -41 -61
-49 -9 -9 -33 -29 -53 -46 -20 -16 -51 -42 -68 -57 -18 -16 -35 -28 -40 -28
-4 0 -24 -16 -44 -35 -19 -19 -39 -35 -42 -35 -4 0 -26 -18 -50 -40 -24 -22
-47 -40 -52 -40 -5 0 -13 -6 -17 -13 -4 -8 -30 -31 -58 -52 -27 -20 -52 -40
-55 -44 -3 -3 -21 -19 -40 -35 -95 -77 -115 -93 -149 -124 -20 -17 -44 -35
-53 -38 -10 -3 -18 -10 -18 -15 0 -5 -6 -9 -13 -9 -7 0 -24 -12 -37 -28 -14
-15 -54 -50 -90 -77 -36 -27 -72 -56 -81 -64 -9 -9 -33 -29 -54 -46 -20 -16
-42 -35 -49 -40 -6 -6 -31 -26 -56 -45 -25 -18 -52 -41 -62 -49 -9 -9 -29 -26
-45 -38 -15 -12 -38 -31 -50 -42 -12 -12 -27 -21 -33 -21 -5 0 -10 -4 -10 -9
0 -4 -27 -28 -60 -52 -33 -24 -60 -47 -60 -51 0 -5 -4 -8 -10 -8 -6 0 -18 -8
-28 -17 -10 -10 -40 -36 -66 -58 -27 -22 -59 -48 -70 -58 -12 -9 -50 -40 -86
-68 -36 -29 -67 -55 -70 -58 -3 -4 -34 -29 -70 -56 -36 -27 -72 -56 -81 -64
-9 -9 -33 -29 -54 -46 -20 -16 -42 -35 -49 -40 -6 -6 -31 -26 -56 -45 -25 -18
-52 -41 -62 -49 -9 -9 -29 -26 -45 -38 -15 -12 -37 -30 -48 -40 -11 -10 -51
-43 -90 -72 -38 -30 -71 -58 -73 -63 -2 -4 -8 -8 -14 -8 -6 0 -16 -6 -22 -14
-6 -7 -58 -51 -116 -97 -58 -46 -106 -87 -108 -91 -2 -5 -9 -8 -16 -8 -6 0
-23 -13 -36 -28 -14 -15 -63 -57 -110 -92 -47 -35 -96 -74 -109 -87 -13 -12
-37 -33 -53 -45 -16 -13 -35 -28 -41 -33 -7 -6 -39 -31 -72 -57 -33 -25 -70
-54 -81 -64 -33 -29 -111 -92 -162 -131 -16 -12 -40 -33 -54 -45 -14 -13 -43
-36 -63 -53 -21 -16 -43 -35 -49 -40 -6 -6 -58 -48 -116 -95 -58 -46 -107 -87
-110 -90 -3 -3 -34 -28 -70 -55 -36 -27 -81 -62 -101 -79 -70 -61 -129 -108
-176 -144 -27 -21 -61 -48 -77 -62 -87 -77 -103 -90 -113 -90 -5 0 -16 -8 -24
-17 -9 -10 -38 -36 -64 -58 -27 -22 -66 -55 -86 -72 -20 -18 -40 -33 -44 -33
-4 0 -13 -6 -19 -14 -6 -7 -58 -51 -116 -97 -58 -46 -116 -94 -130 -106 -14
-13 -28 -23 -31 -23 -4 0 -25 -18 -48 -39 -23 -22 -55 -50 -72 -63 -17 -12
-36 -28 -42 -33 -7 -6 -43 -35 -82 -64 -38 -30 -72 -56 -75 -60 -3 -3 -27 -24
-55 -46 -27 -22 -51 -43 -53 -47 -2 -5 -9 -8 -16 -8 -6 0 -19 -8 -27 -17 -9
-10 -38 -36 -65 -58 -112 -91 -121 -108 -115 -220 2 -42 48 -120 96 -165 14
-13 25 -29 25 -36 0 -7 6 -17 13 -21 6 -4 30 -30 52 -58 22 -27 43 -51 47 -53
5 -2 8 -10 8 -17 0 -8 6 -18 13 -22 17 -11 77 -89 77 -100 0 -5 13 -20 30 -33
16 -14 29 -31 30 -37 0 -7 4 -13 8 -13 4 0 36 -37 69 -82 34 -46 78 -101 97
-123 20 -22 36 -44 36 -49 0 -4 23 -30 51 -57 43 -41 58 -49 93 -51 74 -4 131
3 147 18 8 8 20 14 25 14 6 0 21 13 34 30 14 16 28 29 32 30 3 0 27 20 52 45
48 46 75 55 95 32 8 -10 11 -855 13 -3098 l3 -3084 26 -40 c15 -23 43 -53 62
-68 l36 -27 1944 2 c1836 3 1944 4 1961 21 10 9 24 17 32 17 8 0 14 4 14 9 0
5 6 16 13 23 53 56 71 149 41 215 -20 45 -78 101 -113 110 -14 3 -35 12 -48
18 -18 10 -417 11 -1772 7 -961 -3 -1760 -2 -1775 2 l-26 6 0 3200 c0 3165 0
3200 -20 3237 -49 94 -151 141 -243 113 -23 -8 -49 -20 -58 -27 -8 -7 -20 -13
-25 -13 -5 0 -21 -12 -34 -27 -14 -16 -48 -46 -75 -68 -28 -22 -52 -43 -53
-47 -2 -5 -8 -8 -14 -8 -9 0 -26 -14 -87 -70 -77 -71 -107 -76 -145 -26 -14
19 -26 38 -26 43 0 5 -8 16 -18 25 -34 32 -79 84 -122 142 -24 32 -57 72 -72
88 -49 53 -50 52 127 192 55 44 105 85 110 91 6 6 41 35 79 63 37 29 74 58 81
65 11 11 42 36 105 87 10 8 34 26 52 40 18 14 39 32 48 40 9 8 38 33 65 55 28
21 52 42 55 45 3 3 37 30 75 60 39 29 71 57 73 62 2 4 8 8 12 8 5 0 20 10 33
23 35 34 78 69 122 101 22 16 58 45 81 65 23 20 59 50 80 67 89 72 109 89 112
97 2 4 10 7 17 7 8 0 18 6 22 13 13 20 117 107 128 107 6 0 18 8 26 18 9 9 52
46 95 82 43 35 81 67 84 70 3 3 37 30 75 60 39 30 75 59 81 65 6 5 28 24 49
40 20 17 42 35 49 40 6 6 31 26 56 45 47 37 61 49 107 91 15 14 68 56 117 93
48 37 105 83 126 102 20 19 59 51 86 72 27 20 58 45 69 54 11 9 40 33 65 53
25 20 54 44 65 53 11 10 52 42 90 71 39 30 83 68 99 84 16 16 41 36 55 45 28
19 64 47 93 75 10 9 22 17 28 17 6 0 10 4 10 8 0 4 24 25 53 47 28 21 57 44
62 49 6 6 55 47 110 91 55 44 101 83 103 87 2 4 31 27 65 52 34 24 71 53 83
64 11 10 42 36 70 57 27 20 51 41 54 44 3 4 37 31 75 61 39 29 79 62 90 74 30
32 102 86 113 86 6 0 15 6 19 13 8 13 89 82 183 157 24 19 54 44 66 55 13 11
38 31 56 45 18 14 40 32 48 41 9 8 24 18 33 22 9 3 17 10 17 15 0 5 21 24 48
42 26 18 52 38 57 44 6 6 33 29 60 51 28 22 52 43 53 48 2 4 10 7 17 7 8 0 18
6 22 13 4 7 38 36 75 64 37 29 85 68 107 88 21 20 54 47 73 61 51 37 90 68
107 85 9 8 36 30 61 49 25 19 58 47 74 62 16 15 38 30 48 34 10 3 18 9 18 13
0 4 21 23 47 41 25 19 61 48 79 64 18 17 47 42 65 56 110 85 189 149 204 165
6 6 39 33 75 60 64 48 75 58 155 129 22 20 45 36 50 36 6 0 22 12 35 28 14 15
53 49 87 75 34 26 68 53 75 60 75 73 178 129 178 98 0 -4 17 -20 38 -33 20
-14 48 -36 62 -50 14 -13 45 -39 70 -58 25 -19 51 -40 58 -47 7 -7 41 -34 75
-60 34 -26 67 -52 73 -58 7 -5 29 -23 50 -40 20 -16 44 -38 53 -47 8 -10 21
-18 27 -18 7 0 14 -3 16 -8 2 -4 26 -25 53 -47 28 -22 54 -46 58 -52 4 -7 13
-13 20 -13 7 -1 32 -21 57 -45 25 -25 50 -45 56 -45 7 0 14 -7 18 -15 3 -8 12
-15 21 -15 8 0 15 -4 15 -8 0 -5 20 -23 45 -41 24 -17 51 -38 59 -46 7 -8 45
-38 82 -67 68 -51 83 -63 107 -83 7 -6 34 -28 62 -50 27 -22 55 -44 61 -50 6
-5 22 -17 34 -25 13 -8 30 -22 39 -31 9 -8 36 -30 61 -49 25 -19 47 -37 50
-40 3 -3 27 -24 55 -45 27 -22 55 -44 61 -50 7 -5 24 -19 40 -30 30 -21 96
-76 104 -86 3 -4 37 -30 75 -60 39 -29 75 -58 80 -64 6 -6 30 -27 55 -46 24
-19 52 -41 60 -49 8 -8 45 -37 83 -64 37 -28 67 -53 67 -58 0 -4 5 -8 10 -8 6
0 18 -8 28 -17 10 -10 33 -29 51 -43 18 -14 42 -33 52 -42 11 -10 24 -18 29
-18 6 0 10 -4 10 -10 0 -5 16 -12 35 -16 19 -3 37 -10 40 -14 12 -19 86 -21
143 -4 65 20 83 33 123 88 l29 39 0 702 c0 632 2 703 16 709 9 3 324 6 700 6
l684 0 0 -477 c0 -263 3 -867 6 -1343 5 -696 9 -873 20 -907 23 -71 29 -79
126 -164 47 -43 80 -70 203 -168 66 -53 125 -101 130 -107 6 -6 39 -33 75 -60
36 -26 71 -54 78 -61 7 -7 41 -34 75 -60 34 -26 67 -52 72 -59 6 -6 39 -33 75
-60 36 -26 70 -53 75 -60 6 -6 39 -33 75 -60 36 -27 72 -56 81 -64 17 -16 38
-34 114 -95 28 -22 55 -44 61 -50 6 -5 21 -17 34 -25 12 -8 32 -24 44 -35 42
-38 119 -100 152 -124 19 -13 34 -28 34 -33 0 -4 6 -8 14 -8 8 0 16 -3 18 -7
2 -5 25 -26 53 -48 27 -22 57 -47 66 -55 61 -56 78 -70 87 -70 6 0 12 -3 14
-7 2 -5 26 -26 53 -48 28 -22 55 -45 60 -51 6 -6 39 -33 75 -60 36 -27 73 -57
82 -66 9 -9 31 -24 47 -33 24 -12 31 -22 31 -46 0 -16 -4 -35 -10 -42 -5 -7
-47 -61 -91 -122 -45 -60 -88 -114 -95 -118 -8 -4 -14 -12 -14 -17 0 -10 -107
-162 -133 -190 -8 -8 -26 -34 -41 -57 -21 -34 -32 -43 -54 -43 -15 0 -35 8
-43 18 -9 9 -33 31 -54 47 -21 17 -43 35 -49 40 -6 6 -30 23 -53 39 -24 16
-43 33 -43 37 0 5 -6 9 -14 9 -8 0 -16 4 -18 8 -2 5 -43 39 -91 76 l-88 68
-83 -3 c-76 -4 -88 -7 -122 -35 -51 -41 -71 -85 -82 -179 -6 -48 -8 -1321 -5
-3196 4 -2826 3 -3117 -12 -3129 -12 -10 -419 -12 -2246 -8 -1813 4 -2233 2
-2247 -8 -9 -8 -27 -14 -38 -14 -13 0 -42 -22 -73 -56 l-51 -55 0 -75 c0 -72
2 -78 38 -124 20 -27 55 -58 78 -69 l41 -21 2404 0 2403 0 38 26 c45 31 78 81
78 117 0 14 5 29 12 33 8 5 9 710 3 2913 -9 3300 -10 3178 6 3197 20 24 44 16
91 -31 25 -25 49 -45 53 -45 3 0 20 -13 38 -30 47 -43 123 -80 167 -80 44 0
126 39 148 72 8 11 23 28 34 37 10 8 18 19 18 24 0 12 60 89 77 100 7 4 13 15
13 22 0 8 3 15 8 15 4 0 18 17 32 38 14 20 30 41 37 45 7 4 13 14 13 22 0 7 3
15 8 17 10 4 82 95 82 103 0 3 13 20 30 38 16 18 30 35 30 39 0 4 14 22 30 40
17 18 30 38 30 44 0 7 7 14 15 18 8 3 15 11 15 18 0 11 22 40 73 98 28 32 77
98 77 104 0 8 18 31 43 54 9 9 17 20 17 25 0 12 60 89 77 100 9 5 13 34 13 86
l0 77 -47 51 c-27 28 -77 73 -113 102 -36 28 -70 55 -76 60 -6 5 -49 40 -95
77 -46 37 -88 74 -92 81 -4 7 -14 13 -22 13 -7 0 -15 3 -17 8 -1 4 -34 32 -73
62 -38 30 -72 57 -75 60 -3 3 -27 23 -55 45 -27 22 -66 53 -86 70 -19 16 -57
48 -84 70 -26 22 -56 47 -65 55 -10 8 -28 22 -41 30 -12 8 -30 22 -38 30 -9 8
-37 31 -61 50 -25 19 -47 37 -50 40 -3 3 -27 24 -55 45 -79 63 -86 70 -155
127 -36 29 -94 76 -130 103 -36 28 -72 57 -81 65 -24 23 -60 53 -135 111 -73
57 -116 93 -146 122 -10 9 -22 17 -27 17 -5 0 -11 4 -13 8 -2 5 -34 33 -73 62
-38 30 -72 57 -75 60 -3 3 -27 23 -55 44 -27 22 -57 47 -66 55 -8 9 -30 27
-48 41 -19 14 -42 33 -52 43 -18 16 -19 62 -19 1447 0 1398 0 1431 -19 1466
-11 20 -41 52 -67 70 l-47 34 -986 -3 c-933 -2 -988 -3 -1018 -20 -18 -10 -33
-23 -33 -28 0 -5 -7 -9 -15 -9 -8 0 -15 -5 -15 -12 0 -6 -8 -20 -17 -30 -15
-17 -17 -70 -17 -616 l-1 -597 -39 -3 c-21 -2 -42 0 -45 5 -3 5 -28 27 -56 48
-27 22 -52 43 -55 46 -3 4 -36 30 -74 59 -37 29 -76 60 -86 69 -9 9 -32 27
-50 41 -17 14 -38 31 -45 37 -7 7 -42 35 -77 62 -34 28 -70 56 -78 64 -8 7
-35 29 -60 47 -25 19 -46 38 -48 42 -2 5 -8 8 -14 8 -6 0 -25 15 -42 33 -17
17 -61 55 -96 82 -36 28 -72 57 -81 65 -57 53 -78 70 -84 70 -8 0 -48 30 -95
73 -19 18 -66 57 -105 87 -38 30 -72 57 -75 61 -3 3 -36 30 -75 60 -38 29 -72
56 -75 60 -3 3 -34 29 -71 56 -36 28 -81 65 -100 82 -18 18 -55 49 -81 69 -27
20 -48 40 -48 44 0 4 -7 8 -15 8 -8 0 -15 4 -15 8 0 5 -21 23 -46 41 -25 18
-57 44 -72 58 -15 13 -38 34 -52 46 -14 13 -54 45 -90 72 -36 27 -69 55 -73
62 -4 7 -15 13 -23 13 -9 0 -22 7 -30 15 -23 23 -157 20 -210 -5z"/>
<path d="M6685 25520 c-3 -5 -17 -10 -30 -10 -20 0 -171 -101 -200 -134 -20
-23 -123 -106 -132 -106 -5 0 -20 -12 -33 -28 -14 -15 -56 -52 -95 -82 -38
-30 -75 -59 -81 -65 -6 -5 -26 -22 -45 -37 -107 -86 -156 -126 -178 -147 -14
-13 -43 -35 -63 -49 -21 -13 -38 -29 -38 -33 0 -5 -4 -9 -10 -9 -5 0 -18 -8
-28 -17 -21 -21 -92 -81 -143 -120 -60 -46 -133 -106 -144 -118 -5 -6 -39 -33
-75 -61 -36 -27 -76 -59 -90 -71 -57 -48 -120 -100 -151 -123 -18 -14 -54 -43
-79 -65 -86 -74 -100 -85 -110 -85 -6 0 -10 -4 -10 -10 0 -5 -15 -20 -33 -32
-40 -27 -121 -94 -151 -124 -12 -12 -39 -34 -61 -49 -22 -16 -44 -34 -50 -40
-5 -6 -39 -33 -75 -60 -36 -27 -94 -73 -130 -103 -36 -29 -83 -68 -104 -85
-45 -37 -117 -96 -161 -132 -28 -23 -101 -82 -220 -177 -69 -55 -136 -110
-155 -128 -8 -8 -44 -37 -79 -65 -36 -27 -76 -60 -90 -73 -13 -12 -38 -33 -54
-45 -16 -12 -34 -26 -41 -32 -73 -63 -168 -135 -176 -135 -5 0 -10 -4 -10 -9
0 -6 -26 -31 -57 -56 -32 -25 -69 -55 -83 -67 -14 -12 -52 -42 -85 -67 -61
-48 -106 -84 -134 -111 -9 -8 -30 -24 -46 -34 -69 -44 -165 -142 -165 -167 0
-10 -4 -21 -10 -24 -13 -8 -13 -92 0 -100 6 -3 10 -17 10 -30 0 -30 79 -112
117 -120 15 -4 38 -11 51 -16 30 -12 69 -12 77 1 3 6 16 10 27 10 20 0 112 68
180 133 10 9 22 17 28 17 5 0 13 6 17 13 7 11 87 79 219 183 21 18 63 52 93
75 29 24 62 49 72 55 10 6 29 22 41 35 13 14 55 49 93 78 39 30 72 56 75 60 3
3 28 24 55 46 52 41 99 81 121 103 7 6 17 12 23 12 5 0 14 6 18 13 4 8 15 18
24 23 17 9 78 58 122 97 14 12 39 33 57 47 18 14 41 33 51 43 11 9 22 17 25
17 4 0 16 10 28 23 34 35 75 67 86 67 5 0 13 6 17 13 4 6 31 30 58 52 28 22
52 43 53 47 2 5 9 8 15 8 7 1 30 19 52 41 22 22 58 52 80 67 22 15 45 32 51
37 6 6 28 24 48 40 50 40 76 62 108 91 15 13 32 24 38 24 5 0 10 4 10 8 0 5
28 29 63 54 34 25 74 57 88 69 15 13 42 35 60 49 18 14 40 32 49 40 9 8 38 33
65 55 72 58 96 78 114 95 9 8 45 37 81 65 36 27 94 73 130 103 36 29 81 66
100 82 19 15 51 41 70 56 19 16 41 33 48 39 7 5 25 21 40 35 46 42 109 90 119
90 5 0 20 13 33 30 14 16 29 29 33 30 5 0 23 16 41 35 19 19 37 35 42 35 5 0
28 18 52 40 24 22 47 40 52 40 5 0 13 6 17 13 4 8 37 36 72 62 35 26 73 58 85
69 12 12 42 37 66 56 25 19 67 56 95 81 79 73 108 73 180 0 22 -22 45 -40 52
-41 6 0 13 -3 15 -8 2 -4 26 -25 53 -47 28 -22 55 -45 60 -51 6 -6 30 -26 55
-44 25 -18 50 -38 55 -44 6 -6 55 -47 110 -91 55 -44 105 -85 111 -90 6 -6 34
-28 62 -50 29 -21 52 -43 52 -47 0 -4 6 -8 14 -8 8 0 16 -3 18 -8 2 -4 25 -25
53 -47 27 -22 57 -47 66 -55 9 -8 30 -27 47 -42 17 -16 35 -28 41 -28 6 0 11
-4 11 -9 0 -5 8 -12 18 -15 9 -3 37 -26 62 -51 25 -24 50 -44 57 -45 6 0 13
-3 15 -8 2 -4 26 -25 53 -47 28 -22 54 -46 58 -52 4 -7 14 -13 22 -13 7 0 15
-3 17 -7 2 -5 25 -26 53 -48 27 -22 57 -47 66 -55 9 -8 31 -26 49 -40 18 -14
40 -32 49 -40 9 -8 37 -31 61 -50 25 -19 47 -38 48 -42 2 -5 10 -8 17 -8 8 0
18 -6 22 -14 9 -15 119 -106 129 -106 4 0 16 -10 28 -22 32 -34 115 -102 131
-108 7 -3 31 -21 52 -40 21 -19 67 -59 103 -88 36 -29 72 -58 79 -65 8 -6 37
-29 64 -49 28 -21 67 -54 88 -73 22 -20 69 -59 106 -87 38 -28 72 -57 76 -64
4 -8 14 -14 22 -14 7 0 15 -3 17 -8 2 -4 25 -25 53 -47 27 -22 59 -48 70 -58
11 -11 39 -33 63 -50 23 -17 42 -34 42 -39 0 -4 5 -8 10 -8 6 0 18 -8 29 -17
57 -54 80 -73 89 -73 5 0 12 -7 16 -15 3 -8 10 -15 15 -15 5 0 22 -11 37 -24
88 -74 123 -104 153 -126 51 -38 145 -116 176 -144 15 -14 31 -26 35 -26 4 0
18 -10 32 -22 45 -41 82 -72 128 -107 25 -19 55 -44 67 -55 l23 -21 0 -2578
c0 -2438 1 -2579 18 -2610 36 -67 87 -105 147 -107 119 -5 128 -3 183 49 37
35 52 57 52 75 0 14 5 26 10 26 7 0 10 886 10 2639 0 1749 -3 2642 -10 2646
-5 3 -10 15 -10 26 0 26 -33 85 -61 111 -13 11 -51 41 -84 66 -33 26 -64 51
-70 58 -5 6 -39 33 -75 60 -36 26 -69 53 -75 60 -5 6 -39 33 -75 59 -36 27
-67 52 -70 56 -3 4 -27 24 -55 44 -27 21 -54 44 -58 52 -4 7 -15 13 -22 13 -8
0 -15 4 -15 8 0 5 -21 24 -47 43 -26 18 -54 40 -63 49 -13 13 -82 68 -255 206
-82 65 -100 80 -114 97 -8 9 -21 17 -28 17 -7 0 -13 4 -13 8 0 5 -21 23 -46
41 -25 18 -53 41 -62 50 -9 10 -46 39 -82 66 -36 27 -69 55 -73 62 -4 7 -12
13 -18 13 -5 0 -22 11 -37 24 -62 56 -80 70 -137 114 -33 25 -64 52 -68 59 -4
7 -12 13 -17 13 -6 0 -18 8 -28 18 -24 22 -51 45 -137 112 -39 30 -75 59 -81
65 -7 5 -29 24 -49 40 -21 17 -45 37 -54 46 -9 8 -45 37 -81 64 -36 27 -67 52
-70 55 -3 3 -34 29 -70 58 -36 29 -70 56 -76 61 -6 5 -49 40 -95 77 -46 37
-88 74 -92 81 -4 7 -14 13 -22 13 -7 0 -15 3 -17 8 -1 4 -25 25 -53 47 -27 22
-56 47 -65 55 -9 8 -30 26 -48 40 -18 14 -43 34 -56 45 -57 49 -84 72 -126
104 -25 19 -56 45 -70 57 -44 41 -73 64 -79 64 -3 0 -22 15 -42 33 -19 17 -50
43 -68 57 -18 14 -38 30 -44 35 -7 6 -34 28 -62 50 -27 22 -57 47 -66 55 -9 8
-56 47 -104 85 -48 39 -107 86 -130 105 -23 19 -63 53 -89 75 -27 22 -54 45
-60 50 -86 76 -229 130 -251 95z"/>
<path d="M6600 24164 c-90 -12 -230 -71 -313 -133 -68 -50 -147 -135 -189
-202 -31 -50 -42 -72 -83 -176 -19 -50 -39 -184 -38 -258 2 -185 68 -347 197
-485 62 -66 237 -180 276 -180 9 0 20 -4 26 -9 20 -19 115 -34 240 -38 132 -4
198 6 314 49 88 32 250 162 316 254 78 110 129 275 128 424 0 78 -20 203 -40
247 -8 17 -14 35 -14 41 0 31 -115 207 -170 262 -75 73 -221 154 -335 186 -59
16 -244 27 -315 18z m258 -310 c163 -47 287 -191 318 -366 12 -71 12 -91 -1
-159 -19 -102 -60 -182 -127 -245 -105 -101 -180 -128 -343 -122 -73 2 -119 8
-127 16 -6 6 -19 12 -27 12 -29 0 -149 90 -190 144 -49 64 -78 138 -87 228 -6
63 7 180 25 216 4 10 16 33 25 53 43 90 163 192 261 222 68 21 203 21 273 1z"/>
<path d="M7505 22030 c-22 -5 -61 -13 -87 -19 -26 -6 -55 -15 -65 -20 -10 -5
-33 -15 -52 -22 -130 -48 -358 -258 -513 -471 -98 -136 -237 -393 -302 -558
-10 -25 -23 -54 -29 -65 -5 -11 -14 -33 -18 -50 -4 -16 -19 -61 -32 -100 -39
-112 -77 -246 -102 -360 -9 -44 -21 -98 -27 -120 -5 -22 -13 -65 -18 -95 -4
-30 -12 -80 -18 -110 -54 -272 -54 -749 0 -970 6 -25 14 -63 18 -85 12 -65 37
-149 77 -260 60 -165 183 -375 297 -506 66 -76 190 -186 321 -284 114 -85 145
-115 205 -195 56 -76 104 -168 127 -242 22 -71 28 -493 13 -878 -6 -157 -15
-440 -20 -630 -5 -190 -14 -406 -19 -480 -15 -201 -14 -430 2 -430 90 -3 670
0 674 3 2 3 -1 135 -6 293 -6 159 -17 653 -25 1097 -8 445 -18 817 -21 827 -8
24 21 193 41 245 16 39 45 101 73 152 24 46 155 175 251 248 139 105 155 120
262 227 59 59 125 139 167 203 68 102 161 280 161 307 0 8 4 18 9 23 11 13 53
153 91 305 6 25 15 81 20 125 5 44 14 96 20 115 13 46 13 512 -1 570 -6 25
-14 86 -19 135 -5 50 -14 115 -20 145 -51 252 -70 339 -86 385 -8 23 -14 49
-14 59 0 10 -6 32 -13 49 -8 18 -22 59 -32 92 -17 53 -34 101 -92 250 -8 22
-26 63 -38 90 -12 28 -33 75 -46 105 -12 30 -25 60 -29 65 -4 6 -24 42 -45 80
-95 176 -222 341 -386 503 -161 160 -344 247 -539 257 -41 2 -93 0 -115 -5z"/>
<path d="M4167 21824 c-32 -33 -36 -42 -41 -107 -20 -257 -26 -412 -26 -632 0
-137 -5 -315 -10 -395 -6 -80 -15 -388 -20 -685 -5 -297 -14 -661 -20 -810 -5
-148 -10 -412 -10 -587 -1 -297 0 -319 19 -360 29 -62 65 -99 161 -163 101
-68 137 -101 196 -177 102 -131 126 -214 128 -438 1 -175 -18 -834 -35 -1210
-6 -124 -14 -331 -19 -460 -5 -129 -13 -273 -19 -320 -5 -47 -12 -156 -15
-242 -5 -145 -4 -158 12 -158 106 -3 645 1 651 4 5 3 7 36 5 73 -2 38 -10 205
-19 373 -8 168 -20 368 -25 445 -6 77 -15 291 -20 475 -6 184 -14 416 -20 515
-16 305 -13 607 9 700 44 193 160 346 325 430 55 28 122 98 146 152 19 43 20
66 20 367 0 176 -7 492 -15 701 -8 209 -15 484 -15 610 0 127 -5 322 -10 435
-5 113 -12 340 -15 505 -6 322 -23 785 -31 874 -5 45 -12 61 -39 88 -28 28
-40 33 -82 33 -48 -1 -69 -12 -103 -54 -18 -22 -20 -105 -39 -1651 -11 -907
-14 -1013 -29 -1044 -17 -34 -62 -61 -102 -61 -35 0 -79 28 -96 62 -19 37 -21
99 -28 1063 -5 589 -24 1563 -32 1601 -2 12 -18 35 -36 53 -27 26 -39 31 -81
31 -42 0 -54 -5 -82 -33 -29 -29 -34 -42 -39 -97 -6 -78 -23 -999 -32 -1730
-3 -289 -9 -608 -13 -709 l-6 -184 -35 -28 c-47 -40 -103 -40 -150 0 l-35 29
-7 703 c-3 387 -9 990 -13 1339 l-8 635 -37 38 c-32 32 -44 37 -82 37 -38 0
-50 -5 -81 -36z"/>
</g>
</svg>
